<svg width="24" height="40" viewBox="0 0 24 40" fill="none" xmlns="http://www.w3.org/2000/svg">
<path d="M11.88 25.2C9.90667 25.2 8.24 24.5 6.88 23.1C5.53333 21.7 4.86 20 4.86 18C4.86 16 5.53333 14.3 6.88 12.9C8.24 11.5 9.90667 10.8 11.88 10.8C13.2267 10.8 14.4467 11.1467 15.54 11.84C16.6467 12.5333 17.4933 13.4533 18.08 14.6L17.16 15.08C16.6533 14.0933 15.9333 13.3067 15 12.72C14.0667 12.1333 13.0267 11.84 11.88 11.84C10.2 11.84 8.78 12.44 7.62 13.64C6.47333 14.84 5.9 16.2933 5.9 18C5.9 19.7067 6.47333 21.16 7.62 22.36C8.78 23.56 10.2 24.16 11.88 24.16C13.04 24.16 14.0867 23.86 15.02 23.26C15.9533 22.66 16.6733 21.86 17.18 20.86L18.12 21.34C17.5467 22.5133 16.7 23.4533 15.58 24.16C14.4733 24.8533 13.24 25.2 11.88 25.2Z" fill="black"/>
<circle cx="12" cy="18" r="11.5" stroke="black"/>
</svg>
