<svg width="30" height="35" viewBox="0 0 30 35" fill="none" xmlns="http://www.w3.org/2000/svg">
<g clip-path="url(#clip0_49_757)">
<path d="M14.9979 0L0 8.69706V25.9298L15.0198 34.5886L30 25.9298V8.69706L14.9979 0ZM9.02804 27.2975L7.68361 26.5234L4.90859 16.129V24.9314L3.32756 24.015V11.3367L4.90859 10.4463C4.90859 10.5639 6.44449 15.5286 7.11192 17.6772L7.12833 8.76407L9.02804 7.72191V27.2975ZM19.0668 16.1824V18.3857H12.4212V29.3148L10.6433 28.1372V6.47732L15.0034 3.87053L20.5138 7.09961L19.4867 8.69706L15.0021 6.09027L12.4212 7.55368V16.1796L19.0668 16.1824ZM27.1922 13.4839L24.7509 11.8249V25.5195L22.7828 26.6136V10.7486L20.4126 9.20173L21.3877 7.73969L27.1922 11.4037V13.4839Z" fill="black"/>
</g>
<defs>
<clipPath id="clip0_49_757">
<rect width="30" height="34.5886" fill="white"/>
</clipPath>
</defs>
</svg>
