<svg width="18" height="19" viewBox="0 0 18 19" fill="none" xmlns="http://www.w3.org/2000/svg">
<path d="M0 18.0145L1.2925 13.213C0.250131 11.3425 -0.08104 9.15986 0.359758 7.06552C0.800556 4.97117 1.98376 3.10562 3.69224 1.8112C5.40072 0.516777 7.51988 -0.119688 9.66086 0.0185952C11.8018 0.156878 13.821 1.06063 15.3479 2.56402C16.8747 4.06741 17.8068 6.06958 17.9732 8.20315C18.1395 10.3367 17.5289 12.4585 16.2534 14.1793C14.9779 15.9 13.123 17.1043 11.0292 17.571C8.9354 18.0377 6.74307 17.7357 4.85452 16.7203L0 18.0145ZM5.08859 14.9235L5.38882 15.1011C6.75674 15.9099 8.35444 16.2445 9.93296 16.053C11.5115 15.8614 12.9821 15.1544 14.1157 14.0421C15.2494 12.9298 15.9822 11.4747 16.2002 9.90359C16.4182 8.33245 16.109 6.73352 15.3207 5.35597C14.5325 3.97842 13.3096 2.89964 11.8426 2.28773C10.3755 1.67582 8.74674 1.56516 7.21005 1.97299C5.67336 2.38083 4.31508 3.28425 3.34689 4.54247C2.3787 5.80068 1.85497 7.34302 1.85734 8.92913C1.85605 10.2443 2.22069 11.534 2.91067 12.6547L3.09895 12.9643L2.37637 15.6442L5.08859 14.9235Z" fill="black"/>
<path fill-rule="evenodd" clip-rule="evenodd" d="M12.3753 10.162C12.1993 10.0205 11.9932 9.9208 11.7728 9.87066C11.5523 9.82052 11.3233 9.82123 11.1032 9.87274C10.7724 10.0098 10.5587 10.5275 10.345 10.7864C10.2999 10.8484 10.2337 10.8919 10.1587 10.9087C10.0838 10.9256 10.0052 10.9145 9.93788 10.8777C8.72696 10.4046 7.71196 9.53711 7.05773 8.41603C7.00193 8.34607 6.97552 8.25724 6.98407 8.16825C6.99261 8.07926 7.03543 7.99704 7.10353 7.93892C7.3419 7.70354 7.51691 7.41201 7.61239 7.09128C7.63359 6.73752 7.55233 6.38513 7.37831 6.07615C7.24378 5.64298 6.98775 5.25726 6.64047 4.96459C6.46135 4.88423 6.26275 4.85729 6.06862 4.88701C5.87449 4.91673 5.69313 5.00184 5.54642 5.13208C5.29172 5.35127 5.08956 5.62466 4.95482 5.9321C4.82008 6.23955 4.75619 6.57322 4.76787 6.90856C4.76865 7.09687 4.79258 7.28438 4.83911 7.46688C4.95727 7.90537 5.13898 8.3243 5.3785 8.71041C5.5513 9.00619 5.73985 9.29252 5.94333 9.5682C6.60462 10.4737 7.43587 11.2425 8.39094 11.8319C8.87021 12.1315 9.38244 12.375 9.91752 12.5578C10.4734 12.8091 11.0871 12.9055 11.6934 12.8369C12.0389 12.7848 12.3663 12.6487 12.6467 12.4407C12.9271 12.2327 13.1519 11.9592 13.3014 11.6441C13.3893 11.4538 13.4159 11.2411 13.3778 11.0351C13.2862 10.6138 12.7213 10.3651 12.3753 10.162Z" fill="black"/>
</svg>
